<?xml version="1.0" standalone="no"?>
<!DOCTYPE svg PUBLIC "-//W3C//DTD SVG 1.1//EN" "http://www.w3.org/Graphics/SVG/1.1/DTD/svg11.dtd" >
<!--
2013-9-30: Created.
-->
<svg>
<metadata>
Created by iconfont
</metadata>
<defs>

<font id="iconfont" horiz-adv-x="1024" >
  <font-face
    font-family="iconfont"
    font-weight="500"
    font-stretch="normal"
    units-per-em="1024"
    ascent="896"
    descent="-128"
  />
    <missing-glyph />
    
    <glyph glyph-name="aright" unicode="&#58884;" d="M329.525 725.7863333299999l56.285 58.261 393.996-392.021-393.996-392.021-56.285 58.261 331.786 333.761z"  horiz-adv-x="1024" />

    
    <glyph glyph-name="guanliyuan-copy" unicode="&#61214;" d="M878.592 114.68799999999999q4.096-14.336 7.168-36.352t3.072-44.544-3.584-42.496-10.752-30.208q-5.12-7.168-26.112-13.824t-52.736-12.288-70.656-10.752-77.824-8.704-75.776-5.12-64.512-1.536-64 2.048-74.752 5.12-76.288 7.168-69.12 9.216-53.248 9.728-27.136 9.728q-9.216 7.168-14.336 45.568t4.096 99.84q5.12 34.816 28.16 53.248t53.248 29.184 63.488 18.944 57.856 24.576q19.456 12.288 30.208 23.552t15.36 22.528 4.608 23.552-1.024 27.648q-2.048 22.528-14.848 34.816t-28.16 25.6q-8.192 6.144-13.824 17.92t-10.752 24.064q-5.12 13.312-9.216 29.696-2.048 2.048-6.144 7.168-3.072 5.12-7.168 13.824t-9.216 25.088-6.656 29.184 0.512 22.016q1.024 11.264 5.12 19.456 0 35.84 4.096 71.68 4.096 29.696 13.312 64.512t29.696 62.464q18.432 25.6 39.936 42.496t44.544 26.112 46.592 12.8 45.056 3.584q23.552-2.048 38.4-5.632t24.064-8.704 15.872-12.288 13.824-14.336l19.456 0q9.216 0 17.92-2.56t17.408-9.728 18.944-20.48q23.552-30.72 34.816-67.072t16.384-69.12q5.12-37.888 6.144-74.752 2.048-5.12 3.072-12.288t1.536-17.408-1.536-25.6q-2.048-20.48-6.144-32.256t-9.216-17.92q-5.12-7.168-11.264-10.24-4.096-16.384-9.216-29.696-5.12-12.288-10.752-24.064t-13.824-17.92q-17.408-14.336-28.672-24.064t-15.36-33.28q-3.072-14.336-2.048-28.672t7.68-29.184 21.504-28.16 41.472-23.552q23.552-9.216 51.712-16.896t54.272-17.408 46.592-25.088 28.672-39.936zM549.888 148.48000000000002q3.072 6.144 0.512 12.8t-7.68 12.8-12.288 13.312l-47.104 0q-7.168-7.168-11.264-13.312-4.096-5.12-6.656-11.264t0.512-11.264q7.168-14.336 12.288-25.088t11.264-16.896q-2.048-9.216-6.144-26.112t-7.68-34.816-6.144-33.792-2.56-24.064q0-5.12 4.608-12.288t10.752-14.848 12.8-12.8 11.776-5.12 12.288 5.12 13.824 11.776 11.264 14.336 4.608 12.8q0 6.144-3.072 20.992t-6.656 33.28-7.68 35.84-7.168 27.648q6.144 5.12 11.776 14.848t13.824 26.112z"  horiz-adv-x="1024" />

    
    <glyph glyph-name="zhibanguanli-copy" unicode="&#61221;" d="M512 844.8a35.84 35.84 0 0 1-35.84-35.84v-35.84h71.68v35.84A35.84 35.84 0 0 1 512 844.8z m35.84-71.68v-35.84a35.84 35.84 0 1 0-71.68 0v35.84H225.28A71.68 71.68 0 0 1 153.6 701.44v-609.28a71.68 71.68 0 0 1 71.68-71.68h573.44a71.68 71.68 0 0 1 71.68 71.68V701.44a71.68 71.68 0 0 1-71.68 71.68zM512 558.0799999999999a89.6 89.6 0 1 0-89.6-89.6A87.9616 87.9616 0 0 0 512 558.0799999999999z m0-215.04c97.8944 0 179.2-43.4176 179.2-105.984v-13.5168a23.1936 23.1936 0 0 0-22.3744-23.8592H355.2256a23.1936 23.1936 0 0 0-22.3744 23.9616v13.5168C332.8 299.62239999999997 414.1056 343.03999999999996 512 343.03999999999996z"  horiz-adv-x="1024" />

    
    <glyph glyph-name="huodongjilu-copy" unicode="&#61215;" d="M992.05096 429.774659a61.913935 61.913935 0 0 1 10.977898 58.242869 57.536895 57.536895 0 0 1-40.593515 39.816943l-241.478464 55.560167a30.145097 30.145097 0 0 0-20.543848 15.84912l-123.298389 232.053709A51.853803 51.853803 0 0 1 530.061464 860.701292a52.136192 52.136192 0 0 1-47.088477-29.403825l-125.275116-232.618488a26.756421 26.756421 0 0 0-19.555485-15.284341L96.16974 527.834471c-19.484887-4.518235-34.945721-19.837874-40.099333-39.816943a61.843337 61.843337 0 0 1 11.048496-58.77235l165.833332-200.073079c5.930183-6.353768 8.683482-15.178445 7.518625-23.932524l-25.591564-266.505249c-3.423975-20.932134 4.941819-42.07606 21.567511-54.501206a50.936036 50.936036 0 0 1 55.065985-6.494962l225.558747 108.437632c8.577586 3.847559 16.590393 4.341741 24.6032 0l225.947033-108.437632c18.002341-8.965872 39.322761-6.636157 55.136582 6.00078 16.025614 11.930963 24.073719 32.121825 22.026394 54.465908l-25.520966 267.034729a31.592344 31.592344 0 0 0 6.953846 23.932524l165.903929 200.60256h-0.070597zM120.77294 470.650563h5.577196c0 7.942209-5.577196 0-5.577196 0z m619.492333 248.926492a15.425536 15.425536 0 0 0-11.648574 5.047716 16.166808 16.166808 0 0 0 0 23.297147L871.823559 891.058181a16.308003 16.308003 0 0 0 23.367745 0 16.166808 16.166808 0 0 0 0-23.261849l-143.20686-143.242159a14.719561 14.719561 0 0 0-11.683873-5.047715v0.070597zM879.483379 648.909041a13.625301 13.625301 0 0 0-10.377821 4.518235 14.931354 14.931354 0 0 0 0 20.861536l41.475983 41.228892a14.75486 14.75486 0 0 0 20.649744-0.494182c5.647793-5.894884 5.647793-14.931354 0-20.826238l-41.370086-41.193593a14.154782 14.154782 0 0 0-10.37782-4.09465zM106.476963 84.12970600000006a16.837484 16.837484 0 0 0-12.813431 5.577196 17.931744 17.931744 0 0 0 0 25.626862l69.503157 69.220768a17.75525 17.75525 0 0 0 25.591563 0 17.931744 17.931744 0 0 0 0-25.626863l-69.538455-69.220767a17.75525 17.75525 0 0 0-12.742834-5.577196zM34.220507 13.532288999999992a15.354938 15.354938 0 0 0-11.648574 5.083014 16.13151 16.13151 0 0 0 0 23.191252L60.023863 79.18788700000005a16.237406 16.237406 0 0 0 23.332446 0 16.13151 16.13151 0 0 0 0-23.261849L45.904379 18.61530300000004a18.496523 18.496523 0 0 0-11.648574-5.012416V13.532288999999992z"  horiz-adv-x="1024" />

    
    <glyph glyph-name="xitongdongtaitongzhi-copy" unicode="&#61209;" d="M452.022857 760.027429l-180.809143-230.4H128.877714c-30.793143 0-55.734857-27.648-55.734857-61.732572v-169.764571c0-34.157714 24.941714-60.708571 55.734857-60.708572h142.336l180.443429-212.626285c26.404571-17.554286 60.050286 2.048 60.050286 36.059428L512 711.6800000000001c0 34.084571-33.645714 65.828571-59.977143 48.274286z m-13.019428-618.788572L293.741714 311.149714h-147.748571V457.142857h147.748571l145.554286 168.082286-0.292571-483.913143zM621.714286 310.85714299999995c-23.917714 0-36.571429-19.529143-36.571429-36.571429 0-17.042286 13.677714-36.571429 36.571429-36.571428C731.209143 237.71428600000002 804.571429 277.942857 804.571429 384S731.355429 530.285714 621.714286 530.285714c-19.163429 0-36.571429-14.994286-36.571429-36.571428 0-21.577143 16.676571-36.571429 36.571429-36.571429 71.899429 0 109.714286-1.243429 109.714285-73.142857s-37.814857-73.142857-109.714285-73.142857z m0 365.714286c-17.042286 0-36.571429-19.529143-36.571429-36.571429 0-17.042286 19.529143-36.571429 36.571429-36.571429 147.748571 0 256.219429-71.68 256.219428-219.428571S769.462857 164.57142899999997 621.714286 164.57142899999997c-17.042286 0-36.571429-19.529143-36.571429-36.571429 0-17.042286 19.529143-36.571429 36.571429-36.571429 183.661714 0 329.142857 89.014857 329.142857 292.571429s-147.309714 292.571429-329.142857 292.571429z"  horiz-adv-x="1024" />

    
    <glyph glyph-name="weibiaoti-_huabanfuben-copy" unicode="&#61216;" d="M876.8 871.936H147.2C122.368 871.936 102.4 851.968 102.4 827.136v-91.904h-4.352c-24.832 0-44.8-19.968-44.8-44.8v-12.8c0-24.832 19.968-44.8 44.8-44.8H102.4v-184.832h-4.352c-24.832 0-44.8-19.968-44.8-44.8v-12.8c0-24.832 19.968-44.8 44.8-44.8H102.4v-184.832h-4.352c-24.832 0-44.8-19.968-44.8-44.8v-12.8c0-24.832 19.968-44.8 44.8-44.8H102.4v-114.432c0-24.832 19.968-44.8 44.8-44.8h729.6c24.832 0 44.8 19.968 44.8 44.8V827.136c0 24.832-19.968 44.8-44.8 44.8z m-200.448-463.36v-102.4h-112.128v-44.032h112.128v-102.4h-112.128v-60.416h-102.4v60.416h-112.128v102.4h112.128v44.032h-112.128v102.4h70.144l-114.944 180.736 119.808 2.56 89.088-140.288 91.648 140.288h122.368l-120.064-183.296h68.608z"  horiz-adv-x="1024" />

    
    <glyph glyph-name="tongzhi-copy" unicode="&#61210;" d="M0 280.86044400000003c0-88.462222 68.266667-160.085333 152.576-160.085333h228.920889l8.021333-202.24 224.881778 202.24h257.024c84.309333 0 152.576 71.68 152.576 160.085333V735.914667C1024 824.3199999999999 955.733333 896 871.424 896H152.576C68.266667 896 0 824.376889 0 735.914667v-455.054223z m658.545778 202.24c0 42.097778 32.142222 75.832889 72.305778 75.832889s72.248889-33.678222 72.248888-75.832889c0-42.097778-32.085333-75.832889-72.248888-75.832888-40.163556 0-72.248889 33.735111-72.248889 75.832888z m-220.842667 0c0 42.097778 32.142222 75.832889 72.248889 75.832889 40.220444 0 72.305778-33.678222 72.305778-75.832889 0-42.097778-32.085333-75.832889-72.248889-75.832888-40.163556 0-72.248889 33.735111-72.248889 75.832888z m-216.860444 0c0 42.097778 32.142222 75.832889 72.305777 75.832889s72.248889-33.678222 72.248889-75.832889c0-42.097778-32.085333-75.832889-72.248889-75.832888-40.163556 0-72.248889 33.735111-72.248888 75.832888z"  horiz-adv-x="1024" />

    
    <glyph glyph-name="jiankongzhongxin-copy" unicode="&#61217;" d="M854.087 414.773c-9.087-10.17-24.07-10.604-33.557-0.965l-86.899 88.455L609.784 313.03999999999996c-4.495-6.854-11.787-10.813-19.478-10.813-1.197 0-2.399 0.105-3.595 0.318-8.888 1.503-16.283 8.247-19.08 17.562l-80.103 272.433-102.972-151.744c-4.199-6.212-10.79-10.067-17.883-10.494-7.19-0.538-14.079 2.571-18.876 8.246l-49.537 58.042-96.289-82.03c-10.284-8.783-25.267-6.963-33.357 4.069-8.193 11.031-6.49 27.096 3.794 35.77l113.665 96.806c9.788 8.35 23.872 7.067 32.258-2.786l44.946-52.58 113.563 167.38c5.298 7.814 14.186 11.668 23.073 10.171 8.888-1.496 16.18-8.35 18.88-17.457l79.802-271.463L710.66 555.595c3.994 6.103 10.186 9.957 17.08 10.708 6.893 0.746 13.684-1.82 18.676-6.853L853.29 450.648c9.389-9.64 9.788-25.704 0.797-35.875M900.132 831H123.868c-32.059 0-58.032-27.842-58.032-62.22v-594.42c0-34.372 25.973-62.214 58.032-62.214H479.34v-106.894H96.76c-18.078 0-32.76-15.747-32.76-35.129C64-49.259000000000015 78.682-65 96.76-65h830.48c18.078 0 32.76 15.741 32.76 35.123 0 19.382-14.682 35.129-32.76 35.129H544.763V112.25H900.23c32.063 0 58.031 27.842 58.031 62.22V768.78C958.164 803.158 932.191 831 900.132 831"  horiz-adv-x="1024" />

    
    <glyph glyph-name="zichan-copy" unicode="&#61218;" d="M923.61 260.88C855 194.21000000000004 696.51 147.53999999999996 512 147.53999999999996s-343 46.67-411.61 113.34C77 238.14999999999998 64 213.09000000000003 64 186.76999999999998c0-103.53 200.58-187.46 448-187.46s448 83.93 448 187.46c0 26.32-13 51.38-36.39 74.11zM921.75 458.11C852.13 392.4 694.86 346.54999999999995 512 346.54999999999995S171.87 392.4 102.25 458.11C77.66 434.91 64 409.23 64 382.22c0-103.53 200.58-187.45 448-187.45s448 83.92 448 187.45c0 27.01-13.66 52.69-38.25 75.89zM64 581.23a448 187.44999999999996 0 1 1 896 0 448 187.44999999999996 0 1 1-896 0z"  horiz-adv-x="1024" />

    
    <glyph glyph-name="suoyou" unicode="&#58927;" d="M368.8448 432.3328H94.8224C42.5984 432.3328 0 474.9312 0 527.1551999999999V801.1776C0 853.4016 42.5984 896 94.8224 896h274.0224c52.224 0 94.8224-42.5984 94.8224-94.8224v-274.0224c0-52.224-42.5984-94.8224-94.8224-94.8224zM94.8224 811.6224c-5.7344 0-10.4448-4.9152-10.4448-10.4448v-274.0224c0-5.7344 4.9152-10.4448 10.4448-10.4448h274.0224c5.7344 0 10.4448 4.9152 10.4448 10.4448V801.1776c0 5.7344-4.9152 10.4448-10.4448 10.4448H94.8224zM925.696 432.3328H651.6736c-52.224 0-94.8224 42.5984-94.8224 94.8224V801.1776c0 52.224 42.5984 94.8224 94.8224 94.8224H925.696c52.224 0 94.8224-42.5984 94.8224-94.8224v-274.0224c0-52.224-42.5984-94.8224-94.8224-94.8224zM651.6736 811.6224c-5.7344 0-10.4448-4.9152-10.4448-10.4448v-274.0224c0-5.7344 4.9152-10.4448 10.4448-10.4448H925.696c5.7344 0 10.4448 4.9152 10.4448 10.4448V801.1776c0 5.7344-4.9152 10.4448-10.4448 10.4448H651.6736zM368.8448-128H94.8224C42.5984-128 0-85.40160000000003 0-33.177599999999984V240.84479999999996c0 52.224 42.5984 94.8224 94.8224 94.8224h274.0224c52.224 0 94.8224-42.5984 94.8224-94.8224v-274.0224c0-52.224-42.5984-94.8224-94.8224-94.8224zM94.8224 251.28959999999995c-5.7344 0-10.4448-4.9152-10.4448-10.4448v-274.0224c0-5.7344 4.9152-10.4448 10.4448-10.4448h274.0224c5.7344 0 10.4448 4.9152 10.4448 10.4448V240.84479999999996c0 5.7344-4.9152 10.4448-10.4448 10.4448H94.8224zM925.696-128H651.6736c-52.224 0-94.8224 42.5984-94.8224 94.8224V240.84479999999996c0 52.224 42.5984 94.8224 94.8224 94.8224H925.696c52.224 0 94.8224-42.5984 94.8224-94.8224v-274.0224c0-52.224-42.5984-94.8224-94.8224-94.8224zM651.6736 251.28959999999995c-5.7344 0-10.4448-4.9152-10.4448-10.4448v-274.0224c0-5.7344 4.9152-10.4448 10.4448-10.4448H925.696c5.7344 0 10.4448 4.9152 10.4448 10.4448V240.84479999999996c0 5.7344-4.9152 10.4448-10.4448 10.4448H651.6736z"  horiz-adv-x="1024" />

    
    <glyph glyph-name="xitongdongtaitongzhi" unicode="&#59173;" d="M452.022857 760.027429l-180.809143-230.4H128.877714c-30.793143 0-55.734857-27.648-55.734857-61.732572v-169.764571c0-34.157714 24.941714-60.708571 55.734857-60.708572h142.336l180.443429-212.626285c26.404571-17.554286 60.050286 2.048 60.050286 36.059428L512 711.6800000000001c0 34.084571-33.645714 65.828571-59.977143 48.274286z m-13.019428-618.788572L293.741714 311.149714h-147.748571V457.142857h147.748571l145.554286 168.082286-0.292571-483.913143zM621.714286 310.85714299999995c-23.917714 0-36.571429-19.529143-36.571429-36.571429 0-17.042286 13.677714-36.571429 36.571429-36.571428C731.209143 237.71428600000002 804.571429 277.942857 804.571429 384S731.355429 530.285714 621.714286 530.285714c-19.163429 0-36.571429-14.994286-36.571429-36.571428 0-21.577143 16.676571-36.571429 36.571429-36.571429 71.899429 0 109.714286-1.243429 109.714285-73.142857s-37.814857-73.142857-109.714285-73.142857z m0 365.714286c-17.042286 0-36.571429-19.529143-36.571429-36.571429 0-17.042286 19.529143-36.571429 36.571429-36.571429 147.748571 0 256.219429-71.68 256.219428-219.428571S769.462857 164.57142899999997 621.714286 164.57142899999997c-17.042286 0-36.571429-19.529143-36.571429-36.571429 0-17.042286 19.529143-36.571429 36.571429-36.571429 183.661714 0 329.142857 89.014857 329.142857 292.571429s-147.309714 292.571429-329.142857 292.571429z"  horiz-adv-x="1024" />

    
    <glyph glyph-name="tongzhi" unicode="&#59084;" d="M0 280.86044400000003c0-88.462222 68.266667-160.085333 152.576-160.085333h228.920889l8.021333-202.24 224.881778 202.24h257.024c84.309333 0 152.576 71.68 152.576 160.085333V735.914667C1024 824.3199999999999 955.733333 896 871.424 896H152.576C68.266667 896 0 824.376889 0 735.914667v-455.054223z m658.545778 202.24c0 42.097778 32.142222 75.832889 72.305778 75.832889s72.248889-33.678222 72.248888-75.832889c0-42.097778-32.085333-75.832889-72.248888-75.832888-40.163556 0-72.248889 33.735111-72.248889 75.832888z m-220.842667 0c0 42.097778 32.142222 75.832889 72.248889 75.832889 40.220444 0 72.305778-33.678222 72.305778-75.832889 0-42.097778-32.085333-75.832889-72.248889-75.832888-40.163556 0-72.248889 33.735111-72.248889 75.832888z m-216.860444 0c0 42.097778 32.142222 75.832889 72.305777 75.832889s72.248889-33.678222 72.248889-75.832889c0-42.097778-32.085333-75.832889-72.248889-75.832888-40.163556 0-72.248889 33.735111-72.248888 75.832888z"  horiz-adv-x="1024" />

    
    <glyph glyph-name="s_ic_jinku" unicode="&#59418;" d="M190.092 512.12H108a32 32 0 0 0-17.176 59l400.664 254.92a32 32 0 0 0 37.2 0L929.36 571.12a32 32 0 0 0-17.18-59h-82.088v-544a32 32 0 0 0-32-32h-576a32 32 0 0 0-32 32v544zM348 512l107.468-192H384.384v-64l92.352-0.56v-64.708H384.384V128h92.352v-64h70.528v64h92.912v62.732h-92.912l0.56 65.268h92.352v64h-71.64L676 512h-79.48L512 343.52 427.48 512H348z"  horiz-adv-x="1024" />

    
    <glyph glyph-name="shujutubiao" unicode="&#58888;" d="M921.6 793.6H102.4C46.08 793.6 0 747.52 0 691.2v-614.4c0-56.32 46.08-102.4 102.4-102.4h819.2c56.32 0 102.4 46.08 102.4 102.4V691.2c0 56.32-46.08 102.4-102.4 102.4zM317.44 153.60000000000002c0-25.6-20.48-46.08-46.08-46.08s-46.08 20.48-46.08 46.08V332.79999999999995c0 25.6 20.48 46.08 46.08 46.08s46.08-20.48 46.08-46.08v-179.2z m240.64-10.24c0-20.48-20.48-35.84-46.08-35.84s-46.08 20.48-46.08 35.84V624.64c0 15.36 20.48 30.72 46.08 30.72s46.08-15.36 46.08-35.84v-476.16z m235.52 10.24c0-25.6-20.48-46.08-46.08-46.08s-46.08 20.48-46.08 46.08V506.88c0 25.6 20.48 46.08 46.08 46.08s46.08-20.48 46.08-46.08v-353.28z"  horiz-adv-x="1024" />

    
    <glyph glyph-name="richanggongzuo" unicode="&#58900;" d="M203.405 695h555.19c19.613 0 26.725-2.042 33.896-5.877 7.17-3.835 12.797-9.462 16.632-16.632 3.835-7.17 5.877-14.283 5.877-33.896v-599.19c0-19.613-2.042-26.725-5.877-33.896-3.835-7.17-9.462-12.797-16.632-16.632-7.17-3.835-14.283-5.877-33.896-5.877h-555.19c-19.613 0-26.725 2.042-33.896 5.877-7.17 3.835-12.797 9.462-16.632 16.632-3.835 7.17-5.877 14.283-5.877 33.896v599.19c0 19.613 2.042 26.725 5.877 33.896 3.835 7.17 9.462 12.797 16.632 16.632 7.17 3.835 14.283 5.877 33.896 5.877zM261 469c9.941 0 18 8.059 18 18s-8.059 18-18 18-18-8.059-18-18 8.059-18 18-18z m64 36c-9.389 0-17-7.611-17-17s7.611-17 17-17h376c9.389 0 17 7.611 17 17s-7.611 17-17 17H325z m-64-178c9.941 0 18 8.059 18 18s-8.059 18-18 18-18-8.059-18-18 8.059-18 18-18z m64 36c-9.389 0-17-7.611-17-17s7.611-17 17-17h376c9.389 0 17 7.611 17 17s-7.611 17-17 17H325z m-64-178c9.941 0 18 8.059 18 18s-8.059 18-18 18-18-8.059-18-18 8.059-18 18-18z m64 36c-9.389 0-17-7.611-17-17s7.611-17 17-17h376c9.389 0 17 7.611 17 17s-7.611 17-17 17H325z"  horiz-adv-x="1024" />

    
    <glyph glyph-name="guanliyuan" unicode="&#58882;" d="M878.592 114.68799999999999q4.096-14.336 7.168-36.352t3.072-44.544-3.584-42.496-10.752-30.208q-5.12-7.168-26.112-13.824t-52.736-12.288-70.656-10.752-77.824-8.704-75.776-5.12-64.512-1.536-64 2.048-74.752 5.12-76.288 7.168-69.12 9.216-53.248 9.728-27.136 9.728q-9.216 7.168-14.336 45.568t4.096 99.84q5.12 34.816 28.16 53.248t53.248 29.184 63.488 18.944 57.856 24.576q19.456 12.288 30.208 23.552t15.36 22.528 4.608 23.552-1.024 27.648q-2.048 22.528-14.848 34.816t-28.16 25.6q-8.192 6.144-13.824 17.92t-10.752 24.064q-5.12 13.312-9.216 29.696-2.048 2.048-6.144 7.168-3.072 5.12-7.168 13.824t-9.216 25.088-6.656 29.184 0.512 22.016q1.024 11.264 5.12 19.456 0 35.84 4.096 71.68 4.096 29.696 13.312 64.512t29.696 62.464q18.432 25.6 39.936 42.496t44.544 26.112 46.592 12.8 45.056 3.584q23.552-2.048 38.4-5.632t24.064-8.704 15.872-12.288 13.824-14.336l19.456 0q9.216 0 17.92-2.56t17.408-9.728 18.944-20.48q23.552-30.72 34.816-67.072t16.384-69.12q5.12-37.888 6.144-74.752 2.048-5.12 3.072-12.288t1.536-17.408-1.536-25.6q-2.048-20.48-6.144-32.256t-9.216-17.92q-5.12-7.168-11.264-10.24-4.096-16.384-9.216-29.696-5.12-12.288-10.752-24.064t-13.824-17.92q-17.408-14.336-28.672-24.064t-15.36-33.28q-3.072-14.336-2.048-28.672t7.68-29.184 21.504-28.16 41.472-23.552q23.552-9.216 51.712-16.896t54.272-17.408 46.592-25.088 28.672-39.936zM549.888 148.48000000000002q3.072 6.144 0.512 12.8t-7.68 12.8-12.288 13.312l-47.104 0q-7.168-7.168-11.264-13.312-4.096-5.12-6.656-11.264t0.512-11.264q7.168-14.336 12.288-25.088t11.264-16.896q-2.048-9.216-6.144-26.112t-7.68-34.816-6.144-33.792-2.56-24.064q0-5.12 4.608-12.288t10.752-14.848 12.8-12.8 11.776-5.12 12.288 5.12 13.824 11.776 11.264 14.336 4.608 12.8q0 6.144-3.072 20.992t-6.656 33.28-7.68 35.84-7.168 27.648q6.144 5.12 11.776 14.848t13.824 26.112z"  horiz-adv-x="1024" />

    
    <glyph glyph-name="huodongjilu" unicode="&#58883;" d="M992.05096 429.774659a61.913935 61.913935 0 0 1 10.977898 58.242869 57.536895 57.536895 0 0 1-40.593515 39.816943l-241.478464 55.560167a30.145097 30.145097 0 0 0-20.543848 15.84912l-123.298389 232.053709A51.853803 51.853803 0 0 1 530.061464 860.701292a52.136192 52.136192 0 0 1-47.088477-29.403825l-125.275116-232.618488a26.756421 26.756421 0 0 0-19.555485-15.284341L96.16974 527.834471c-19.484887-4.518235-34.945721-19.837874-40.099333-39.816943a61.843337 61.843337 0 0 1 11.048496-58.77235l165.833332-200.073079c5.930183-6.353768 8.683482-15.178445 7.518625-23.932524l-25.591564-266.505249c-3.423975-20.932134 4.941819-42.07606 21.567511-54.501206a50.936036 50.936036 0 0 1 55.065985-6.494962l225.558747 108.437632c8.577586 3.847559 16.590393 4.341741 24.6032 0l225.947033-108.437632c18.002341-8.965872 39.322761-6.636157 55.136582 6.00078 16.025614 11.930963 24.073719 32.121825 22.026394 54.465908l-25.520966 267.034729a31.592344 31.592344 0 0 0 6.953846 23.932524l165.903929 200.60256h-0.070597zM120.77294 470.650563h5.577196c0 7.942209-5.577196 0-5.577196 0z m619.492333 248.926492a15.425536 15.425536 0 0 0-11.648574 5.047716 16.166808 16.166808 0 0 0 0 23.297147L871.823559 891.058181a16.308003 16.308003 0 0 0 23.367745 0 16.166808 16.166808 0 0 0 0-23.261849l-143.20686-143.242159a14.719561 14.719561 0 0 0-11.683873-5.047715v0.070597zM879.483379 648.909041a13.625301 13.625301 0 0 0-10.377821 4.518235 14.931354 14.931354 0 0 0 0 20.861536l41.475983 41.228892a14.75486 14.75486 0 0 0 20.649744-0.494182c5.647793-5.894884 5.647793-14.931354 0-20.826238l-41.370086-41.193593a14.154782 14.154782 0 0 0-10.37782-4.09465zM106.476963 84.12970600000006a16.837484 16.837484 0 0 0-12.813431 5.577196 17.931744 17.931744 0 0 0 0 25.626862l69.503157 69.220768a17.75525 17.75525 0 0 0 25.591563 0 17.931744 17.931744 0 0 0 0-25.626863l-69.538455-69.220767a17.75525 17.75525 0 0 0-12.742834-5.577196zM34.220507 13.532288999999992a15.354938 15.354938 0 0 0-11.648574 5.083014 16.13151 16.13151 0 0 0 0 23.191252L60.023863 79.18788700000005a16.237406 16.237406 0 0 0 23.332446 0 16.13151 16.13151 0 0 0 0-23.261849L45.904379 18.61530300000004a18.496523 18.496523 0 0 0-11.648574-5.012416V13.532288999999992z"  horiz-adv-x="1024" />

    
    <glyph glyph-name="weibiaoti-_huabanfuben" unicode="&#59052;" d="M876.8 871.936H147.2C122.368 871.936 102.4 851.968 102.4 827.136v-91.904h-4.352c-24.832 0-44.8-19.968-44.8-44.8v-12.8c0-24.832 19.968-44.8 44.8-44.8H102.4v-184.832h-4.352c-24.832 0-44.8-19.968-44.8-44.8v-12.8c0-24.832 19.968-44.8 44.8-44.8H102.4v-184.832h-4.352c-24.832 0-44.8-19.968-44.8-44.8v-12.8c0-24.832 19.968-44.8 44.8-44.8H102.4v-114.432c0-24.832 19.968-44.8 44.8-44.8h729.6c24.832 0 44.8 19.968 44.8 44.8V827.136c0 24.832-19.968 44.8-44.8 44.8z m-200.448-463.36v-102.4h-112.128v-44.032h112.128v-102.4h-112.128v-60.416h-102.4v60.416h-112.128v102.4h112.128v44.032h-112.128v102.4h70.144l-114.944 180.736 119.808 2.56 89.088-140.288 91.648 140.288h122.368l-120.064-183.296h68.608z"  horiz-adv-x="1024" />

    
    <glyph glyph-name="jiankongzhongxin" unicode="&#58914;" d="M854.087 414.773c-9.087-10.17-24.07-10.604-33.557-0.965l-86.899 88.455L609.784 313.03999999999996c-4.495-6.854-11.787-10.813-19.478-10.813-1.197 0-2.399 0.105-3.595 0.318-8.888 1.503-16.283 8.247-19.08 17.562l-80.103 272.433-102.972-151.744c-4.199-6.212-10.79-10.067-17.883-10.494-7.19-0.538-14.079 2.571-18.876 8.246l-49.537 58.042-96.289-82.03c-10.284-8.783-25.267-6.963-33.357 4.069-8.193 11.031-6.49 27.096 3.794 35.77l113.665 96.806c9.788 8.35 23.872 7.067 32.258-2.786l44.946-52.58 113.563 167.38c5.298 7.814 14.186 11.668 23.073 10.171 8.888-1.496 16.18-8.35 18.88-17.457l79.802-271.463L710.66 555.595c3.994 6.103 10.186 9.957 17.08 10.708 6.893 0.746 13.684-1.82 18.676-6.853L853.29 450.648c9.389-9.64 9.788-25.704 0.797-35.875M900.132 831H123.868c-32.059 0-58.032-27.842-58.032-62.22v-594.42c0-34.372 25.973-62.214 58.032-62.214H479.34v-106.894H96.76c-18.078 0-32.76-15.747-32.76-35.129C64-49.259000000000015 78.682-65 96.76-65h830.48c18.078 0 32.76 15.741 32.76 35.123 0 19.382-14.682 35.129-32.76 35.129H544.763V112.25H900.23c32.063 0 58.031 27.842 58.031 62.22V768.78C958.164 803.158 932.191 831 900.132 831"  horiz-adv-x="1024" />

    
    <glyph glyph-name="zichan" unicode="&#58947;" d="M923.61 260.88C855 194.21000000000004 696.51 147.53999999999996 512 147.53999999999996s-343 46.67-411.61 113.34C77 238.14999999999998 64 213.09000000000003 64 186.76999999999998c0-103.53 200.58-187.46 448-187.46s448 83.93 448 187.46c0 26.32-13 51.38-36.39 74.11zM921.75 458.11C852.13 392.4 694.86 346.54999999999995 512 346.54999999999995S171.87 392.4 102.25 458.11C77.66 434.91 64 409.23 64 382.22c0-103.53 200.58-187.45 448-187.45s448 83.92 448 187.45c0 27.01-13.66 52.69-38.25 75.89zM64 581.23a448 187.44999999999996 0 1 1 896 0 448 187.44999999999996 0 1 1-896 0z"  horiz-adv-x="1024" />

    
    <glyph glyph-name="laifangguanli" unicode="&#61208;" d="M596.293818 883.991273l-113.594182-252.974546h109.614546L705.861818 883.968h-109.591273z m-263.400727 0l96.209454-252.974546 57.902546 128.977455L439.901091 883.991273h-107.008zM886.993455 671.511273h-225.000728v-23.808a50.036364 50.036364 0 0 0-49.989818-50.013091h-200.005818a50.036364 50.036364 0 0 0-49.989818 50.013091V671.511273H137.006545a125.044364 125.044364 0 0 1-124.997818-125.021091v-537.483637a125.044364 125.044364 0 0 1 124.974546-124.997818h750.010182a125.044364 125.044364 0 0 1 124.997818 124.974546V546.513455a125.044364 125.044364 0 0 1-124.974546 125.02109zM651.310545 28.090182000000027H372.689455s-54.481455 7.703273-54.481455 45.405091c0 24.808727 25.483636 49.803636 76.590545 81.105454a3500.218182 3500.218182 0 0 1 49.896728 31.301818c4.514909 3.793455 21.015273 18.897455 21.597091 31.790546-20.898909 18.501818-38.4 52.503273-44.8 71.307636-6.493091 18.804364-12.101818 33.210182-12.101819 51.991273 0 61.602909 45.917091 111.499636 102.609455 111.499636 56.599273 0 102.609455-49.896727 102.609455-111.476363 0-18.804364-7.098182-39.424-12.101819-52.014546-4.887273-12.590545-23.901091-52.805818-44.8-71.307636 0.488727-11.589818 14.592-25.483636 20.293819-30.603636 17.501091-11.101091 36.701091-23.272727 55.38909-34.909091 49.408-30.580364 72.401455-54.388364 72.401455-78.661819-0.093091-34.513455-54.481455-45.428364-54.481455-45.428363z"  horiz-adv-x="1024" />

    
    <glyph glyph-name="anbao" unicode="&#59358;" d="M888 742.4v-443.2c0-28.8-6.4-51.2-17.6-78.4-11.2-28.8-28.8-51.2-51.2-78.4-22.4-22.4-44.8-51.2-67.2-67.2-28.8-22.4-51.2-40-78.4-56s-51.2-33.6-78.4-44.8c-28.8-11.2-44.8-17.6-67.2-22.4h-16c-17.6 6.4-44.8 11.2-67.2 22.4-28.8 11.2-51.2 28.8-78.4 44.8-28.8 17.6-56 40-84.8 56-28.8 22.4-51.2 44.8-73.6 67.2s-40 51.2-51.2 78.4c-11.2 28.8-22.4 51.2-22.4 78.4V742.4l33.6 6.4L512 816l353.6-67.2 22.4-6.4zM512 753.6L209.6 704v-280H512V753.6z m302.4-329.6H512v-398.4c17.6 6.4 40 11.2 62.4 22.4l67.2 33.6c22.4 11.2 44.8 28.8 62.4 44.8 22.4 17.6 40 33.6 56 51.2 17.6 17.6 28.8 40 40 56 11.2 22.4 17.6 40 17.6 62.4l-3.2 128z"  horiz-adv-x="1024" />

    
    <glyph glyph-name="135xiaoxitongzhitixinglingshenglingdang" unicode="&#58979;" d="M849.6 182.60000000000002c8.4 0.4 16.7-1.8 23.8-6.4-28.9 18.5-46.4 50.4-46.3 84.8V460c0 145.9-105.7 267.6-246.9 297.5v7.2c0 37.1-30.1 67.1-67.2 67.1h-0.1c-37.1 0-67.3-30.1-67.3-67.2v-7C304.3 727.6 198.7 606 198.7 460v-199.1c0-35.7-18.6-66.9-46.4-84.8 7 4.6 15.4 6.9 23.8 6.4-24.7 0.9-45.5-18.4-46.4-43.1-0.9-24.7 18.4-45.5 43.1-46.4h676.6c24.7-0.1 44.8 20 44.9 44.7 0.1 24.8-19.9 44.9-44.7 44.9zM513-63.799999999999955c62 0 112.2 50.2 112.2 111.9H400.7c0-61.7 50.2-111.9 112.3-111.9z"  horiz-adv-x="1024" />

    
    <glyph glyph-name="laifangguanli-copy" unicode="&#61219;" d="M596.293818 883.991273l-113.594182-252.974546h109.614546L705.861818 883.968h-109.591273z m-263.400727 0l96.209454-252.974546 57.902546 128.977455L439.901091 883.991273h-107.008zM886.993455 671.511273h-225.000728v-23.808a50.036364 50.036364 0 0 0-49.989818-50.013091h-200.005818a50.036364 50.036364 0 0 0-49.989818 50.013091V671.511273H137.006545a125.044364 125.044364 0 0 1-124.997818-125.021091v-537.483637a125.044364 125.044364 0 0 1 124.974546-124.997818h750.010182a125.044364 125.044364 0 0 1 124.997818 124.974546V546.513455a125.044364 125.044364 0 0 1-124.974546 125.02109zM651.310545 28.090182000000027H372.689455s-54.481455 7.703273-54.481455 45.405091c0 24.808727 25.483636 49.803636 76.590545 81.105454a3500.218182 3500.218182 0 0 1 49.896728 31.301818c4.514909 3.793455 21.015273 18.897455 21.597091 31.790546-20.898909 18.501818-38.4 52.503273-44.8 71.307636-6.493091 18.804364-12.101818 33.210182-12.101819 51.991273 0 61.602909 45.917091 111.499636 102.609455 111.499636 56.599273 0 102.609455-49.896727 102.609455-111.476363 0-18.804364-7.098182-39.424-12.101819-52.014546-4.887273-12.590545-23.901091-52.805818-44.8-71.307636 0.488727-11.589818 14.592-25.483636 20.293819-30.603636 17.501091-11.101091 36.701091-23.272727 55.38909-34.909091 49.408-30.580364 72.401455-54.388364 72.401455-78.661819-0.093091-34.513455-54.481455-45.428364-54.481455-45.428363z"  horiz-adv-x="1024" />

    
    <glyph glyph-name="zuzhixinxi" unicode="&#58891;" d="M240.941 353.882h903.53v-60.235H240.94zM361.411 896H1024v-421.647H361.412zM59.092 173.176h301.176V-128H59.091z m485.316 0h301.176V-128H544.407z m477.304 0h301.177V-128H1021.71zM662.588 594.824h60.236v-542.118h-60.236zM180.706 353.882h60.235v-361.411h-60.235z m963.765 0h60.235v-361.411h-60.235z"  horiz-adv-x="1325" />

    
    <glyph glyph-name="zhibanguanli" unicode="&#58995;" d="M512 844.8a35.84 35.84 0 0 1-35.84-35.84v-35.84h71.68v35.84A35.84 35.84 0 0 1 512 844.8z m35.84-71.68v-35.84a35.84 35.84 0 1 0-71.68 0v35.84H225.28A71.68 71.68 0 0 1 153.6 701.44v-609.28a71.68 71.68 0 0 1 71.68-71.68h573.44a71.68 71.68 0 0 1 71.68 71.68V701.44a71.68 71.68 0 0 1-71.68 71.68zM512 558.08a89.6 89.6 0 1 0-89.6-89.6A87.9616 87.9616 0 0 0 512 558.08z m0-215.04c97.8944 0 179.2-43.4176 179.2-105.984v-13.5168a23.1936 23.1936 0 0 0-22.3744-23.8592H355.2256a23.1936 23.1936 0 0 0-22.3744 23.9616v13.5168C332.8 299.6224 414.1056 343.04 512 343.04z"  horiz-adv-x="1024" />

    
    <glyph glyph-name="fullScreen" unicode="&#58919;" d="M628.053333 267.94666700000005a32 32 0 0 0 45.226667 0l158.72-158.634667V202.66666699999996l0.298667 4.352A32 32 0 0 0 896 202.66666699999996v-181.333334l-0.341333-3.84a21.333333 21.333333 0 0 0-20.992-17.493333h-181.333334l-4.352 0.298667a32 32 0 0 0-27.648 31.701333l0.298667 4.352a32 32 0 0 0 31.701333 27.648h93.44l-158.72 158.72-3.114666 3.584a32 32 0 0 0 3.114666 41.642667z m-232.106666 0a32 32 0 0 0 3.114666-41.642667l-3.114666-3.584-158.72-158.72h93.44a32 32 0 0 0 31.701333-27.648l0.298667-4.352a32 32 0 0 0-27.648-31.701333L330.666667 0H149.333333a21.333333 21.333333 0 0 0-20.992 17.493333L128 21.33333300000004v181.333334a32 32 0 0 0 63.701333 4.352l0.298667-4.352v-93.354667l158.72 158.634667a32 32 0 0 0 45.226667 0zM874.666667 768a21.333333 21.333333 0 0 0 20.992-17.493333L896 746.666667v-181.333334a32 32 0 0 0-63.701333-4.352L832 565.333333V658.688L673.28 500.053333a32 32 0 0 0-48.341333 41.642667l3.114666 3.584 158.72 158.72h-93.44a32 32 0 0 0-31.701333 27.648L661.333333 736a32 32 0 0 0 27.648 31.701333L693.333333 768h181.333334zM330.666667 768l4.352-0.298667a32 32 0 0 0 27.648-31.701333l-0.298667-4.352a32 32 0 0 0-31.701333-27.648H237.226667l158.72-158.72 3.114666-3.584a32 32 0 0 0-48.341333-41.642667L192 658.688V565.333333l-0.298667-4.352A32 32 0 0 0 128 565.333333V746.666667l0.341333 3.84A21.333333 21.333333 0 0 0 149.333333 768h181.333334z"  horiz-adv-x="1024" />

    
    <glyph glyph-name="s_ic_jinku-copy" unicode="&#61211;" d="M190.092 512.12H108a32 32 0 0 0-17.176 59l400.664 254.92a32 32 0 0 0 37.2 0L929.36 571.12a32 32 0 0 0-17.18-59h-82.088v-544a32 32 0 0 0-32-32h-576a32 32 0 0 0-32 32v544zM348 512l107.468-192H384.384v-64l92.352-0.56v-64.708H384.384V128h92.352v-64h70.528v64h92.912v62.732h-92.912l0.56 65.268h92.352v64h-71.64L676 512h-79.48L512 343.52 427.48 512H348z"  horiz-adv-x="1024" />

    
    <glyph glyph-name="shujutubiao-copy" unicode="&#61212;" d="M921.6 793.6H102.4C46.08 793.6 0 747.52 0 691.2v-614.4c0-56.32 46.08-102.4 102.4-102.4h819.2c56.32 0 102.4 46.08 102.4 102.4V691.2c0 56.32-46.08 102.4-102.4 102.4zM317.44 153.60000000000002c0-25.6-20.48-46.08-46.08-46.08s-46.08 20.48-46.08 46.08V332.79999999999995c0 25.6 20.48 46.08 46.08 46.08s46.08-20.48 46.08-46.08v-179.2z m240.64-10.24c0-20.48-20.48-35.84-46.08-35.84s-46.08 20.48-46.08 35.84V624.64c0 15.36 20.48 30.72 46.08 30.72s46.08-15.36 46.08-35.84v-476.16z m235.52 10.24c0-25.6-20.48-46.08-46.08-46.08s-46.08 20.48-46.08 46.08V506.88c0 25.6 20.48 46.08 46.08 46.08s46.08-20.48 46.08-46.08v-353.28z"  horiz-adv-x="1024" />

    
    <glyph glyph-name="richanggongzuo-copy" unicode="&#61213;" d="M203.405 695h555.19c19.613 0 26.725-2.042 33.896-5.877 7.17-3.835 12.797-9.462 16.632-16.632 3.835-7.17 5.877-14.283 5.877-33.896v-599.19c0-19.613-2.042-26.725-5.877-33.896-3.835-7.17-9.462-12.797-16.632-16.632-7.17-3.835-14.283-5.877-33.896-5.877h-555.19c-19.613 0-26.725 2.042-33.896 5.877-7.17 3.835-12.797 9.462-16.632 16.632-3.835 7.17-5.877 14.283-5.877 33.896v599.19c0 19.613 2.042 26.725 5.877 33.896 3.835 7.17 9.462 12.797 16.632 16.632 7.17 3.835 14.283 5.877 33.896 5.877zM261 469c9.941 0 18 8.059 18 18s-8.059 18-18 18-18-8.059-18-18 8.059-18 18-18z m64 36c-9.389 0-17-7.611-17-17s7.611-17 17-17h376c9.389 0 17 7.611 17 17s-7.611 17-17 17H325z m-64-178c9.941 0 18 8.059 18 18s-8.059 18-18 18-18-8.059-18-18 8.059-18 18-18z m64 36c-9.389 0-17-7.611-17-17s7.611-17 17-17h376c9.389 0 17 7.611 17 17s-7.611 17-17 17H325z m-64-178c9.941 0 18 8.059 18 18s-8.059 18-18 18-18-8.059-18-18 8.059-18 18-18z m64 36c-9.389 0-17-7.611-17-17s7.611-17 17-17h376c9.389 0 17 7.611 17 17s-7.611 17-17 17H325z"  horiz-adv-x="1024" />

    
    <glyph glyph-name="anbao-copy" unicode="&#61220;" d="M888 742.4v-443.2c0-28.8-6.4-51.2-17.6-78.4-11.2-28.8-28.8-51.2-51.2-78.4-22.4-22.4-44.8-51.2-67.2-67.2-28.8-22.4-51.2-40-78.4-56s-51.2-33.6-78.4-44.8c-28.8-11.2-44.8-17.6-67.2-22.4h-16c-17.6 6.4-44.8 11.2-67.2 22.4-28.8 11.2-51.2 28.8-78.4 44.8-28.8 17.6-56 40-84.8 56-28.8 22.4-51.2 44.8-73.6 67.2s-40 51.2-51.2 78.4c-11.2 28.8-22.4 51.2-22.4 78.4V742.4l33.6 6.4L512 816l353.6-67.2 22.4-6.4zM512 753.6L209.6 704v-280H512V753.6z m302.4-329.6H512v-398.4c17.6 6.4 40 11.2 62.4 22.4l67.2 33.6c22.4 11.2 44.8 28.8 62.4 44.8 22.4 17.6 40 33.6 56 51.2 17.6 17.6 28.8 40 40 56 11.2 22.4 17.6 40 17.6 62.4l-3.2 128z"  horiz-adv-x="1024" />

    
    <glyph glyph-name="zuzhixinxi-copy" unicode="&#61222;" d="M240.941 353.88199999999995h903.53v-60.235H240.94zM361.411 896H1024v-421.647H361.412zM59.092 173.17600000000004h301.176V-128H59.091z m485.316 0h301.176V-128H544.407z m477.304 0h301.177V-128H1021.71zM662.588 594.8240000000001h60.236v-542.118h-60.236zM180.706 353.88199999999995h60.235v-361.411h-60.235z m963.765 0h60.235v-361.411h-60.235z"  horiz-adv-x="1325" />

    
    <glyph glyph-name="my-current" unicode="&#58880;" d="M566.192 844.056a76.944 76.944 0 0 1-103.392 0L44.72 447.072a38.568 38.568 0 0 1 51.648-57.288l6.648 6.312V-18.24000000000001a77.136 77.136 0 0 1 77.136-77.232h224.472v232.224a54.312 54.312 0 0 0 54.336 54.384h105.624a54.312 54.312 0 0 0 54.336-54.384v-232.224h229.8a77.136 77.136 0 0 1 77.16 77.232V391.032c17.136-15.504 41.448-14.328 55.704 1.56a38.568 38.568 0 0 1-2.784 54.48L566.192 844.032z"  horiz-adv-x="1024" />

    
    <glyph glyph-name="my-current-copy" unicode="&#58881;" d="M566.192 844.056a76.944 76.944 0 0 1-103.392 0L44.72 447.072a38.568 38.568 0 0 1 51.648-57.288l6.648 6.312V-18.24000000000001a77.136 77.136 0 0 1 77.136-77.232h224.472v232.224a54.312 54.312 0 0 0 54.336 54.384h105.624a54.312 54.312 0 0 0 54.336-54.384v-232.224h229.8a77.136 77.136 0 0 1 77.16 77.232V391.032c17.136-15.504 41.448-14.328 55.704 1.56a38.568 38.568 0 0 1-2.784 54.48L566.192 844.032z"  horiz-adv-x="1024" />

    


  </font>
</defs>
</svg>
